<?xml version="1.0" encoding="UTF-8"?>
<!DOCTYPE svg PUBLIC "-//W3C//DTD SVG 1.1//EN" "http://www.w3.org/Graphics/SVG/1.1/DTD/svg11.dtd">
<!-- Creator: CorelDRAW -->
<svg xmlns="http://www.w3.org/2000/svg" xml:space="preserve" width="489.745mm" height="489.75mm" version="1.1" style="shape-rendering:geometricPrecision; text-rendering:geometricPrecision; image-rendering:optimizeQuality; fill-rule:evenodd; clip-rule:evenodd"
viewBox="0 0 407876.54 407880.7"
 xmlns:xlink="http://www.w3.org/1999/xlink"
 xmlns:xodm="http://www.corel.com/coreldraw/odm/2003">
 <defs>
  <style type="text/css">
   <![CDATA[
    .str0 {stroke:#D9DADA;stroke-width:166.57;stroke-miterlimit:22.9256}
    .fil0 {fill:#FEFEFE}
    .fil1 {fill:#15A184}
   ]]>
  </style>
 </defs>
 <g id="Layer_x0020_1">
  <metadata id="CorelCorpID_0Corel-Layer"/>
  <ellipse class="fil0 str0" cx="203938.27" cy="203940.35" rx="203854.98" ry="203857.07"/>
  <path class="fil1" d="M75388.68 91093.44c6650.35,0 12041.62,5392.1 12041.62,12043.62 0,2480.01 -749.63,4785.05 -2034.61,6700.4l13736.02 13956.97 -80.04 23878.36 14202.16 13737.52 14769.07 115.43 12548.23 13235.57c1682.83,-2987.46 4602.83,-5184.89 8065.34,-5895.39l0 -8289.7 -31907.81 -31309.66 0 -7483.52c-3131.37,-723.65 -5465.81,-3530.14 -5465.81,-6882.13 0,-3900.91 3161.86,-7063.35 7062.19,-7063.35 3900.33,0 7062.19,3162.44 7062.19,7063.35 0,3067.41 -1955,5677.52 -4686.53,6653.35l0 6044.96 31907.81 31309.66 0 9808.54c5923.54,755.88 10502.38,5816.18 10502.38,11946.18 0,5844.33 -4162.42,10715.75 -9683.7,11812.09l0 29479.59 26316.57 26364.54 0 -25470.66c-1072.52,241.44 -2188.02,369.53 -3333.42,369.53 -8349.42,0 -15117.95,-6769.61 -15117.95,-15120.44 0,-8350.75 6768.53,-15120.36 15117.95,-15120.36 8349.25,0 15117.78,6769.61 15117.78,15120.36 0,3918.82 -1490.52,7489.6 -3935.73,10175.66l0 37908.79 42.06 42.06 -42.06 41.97 0 6030.72 11269.25 11269.67 -417.75 -84983.02 -28702.64 -28675.57 0 -15561.68 -28271.98 -27925.27 0 -9547.2 -8677.97 -7571.96 0 -11331.46 -19766.49 -19388.55c-1168.47,856.24 -2609.69,1362.18 -4169.17,1362.18 -3900.33,0 -7062.19,-3162.36 -7062.19,-7063.35 0,-3901 3161.86,-7063.35 7062.19,-7063.35 3900.33,0 7062.19,3162.36 7062.19,7063.35 0,1090.1 -247.02,2122.65 -688.09,3044.43l21002.25 20600.66 0 11211.95 5237.28 4569.85 0 -54311.89c-3096.4,-748.88 -5396.43,-3538.13 -5396.43,-6865.22 0,-3900.91 3161.86,-7063.35 7062.19,-7063.35 3900.33,0 7062.19,3162.44 7062.19,7063.35 0,3382.39 -2377.08,6208.78 -5551.42,6900.78l0 67062.58 3115.72 3077.57 0 -31550.35 8247.14 -8274.88c-743.89,-1118.83 -1177.63,-2461.53 -1177.63,-3905.91 0,-3900.91 3161.86,-7063.35 7062.19,-7063.35 3900.33,0 7062.19,3162.44 7062.19,7063.35 0,3901 -3161.86,7063.35 -7062.19,7063.35 -1357.77,0 -2625.84,-383.44 -3702.28,-1047.71l-7394.32 7419.22 0 33294.06 18944.65 18712.29 0 -26647.62c-4602.91,-972.42 -8057.76,-5058.05 -8057.76,-9951.29 0,-5617.47 4553.19,-10171.41 10169.74,-10171.41 5616.55,0 10169.83,4553.94 10169.83,10171.41 0,4730.83 -3229.4,8706.95 -7603.45,9844.44l0 44841.81 14481.91 14468.33 0 -24635.83c-2965.06,-837.91 -5138.01,-3564.03 -5138.01,-6797.85 0,-3901 3161.94,-7063.35 7062.27,-7063.35 3900.33,0 7062.19,3162.36 7062.19,7063.35 0,3233.81 -2172.95,5959.85 -5137.92,6797.85l0 28480.77 5661.19 5655.78 -27.98 -5695.01 18213.59 -17310.8 112.27 -23244.91 -16290.16 -15779.63 0 -26382.78 -27226.28 -26930.29 0 -26886.81c-4218.64,-853.82 -7394.57,-4582.67 -7394.57,-9053.83 0,-5101.69 4135.11,-9237.55 9236.05,-9237.55 5100.94,0 9235.97,4135.86 9235.97,9237.55 0,4471.16 -3175.85,8200.01 -7394.49,9053.83l0 25349.57 23543.32 23287.3 0 -27590.22c-5851.33,-820.84 -10354.21,-5846.75 -10354.21,-11925.36 0,-6651.52 5391.19,-12043.62 12041.62,-12043.62 6650.35,0 12041.54,5392.1 12041.54,12043.62 0,5566.5 -3776.24,10250.19 -8906,11630.28l0 57405.45 11499.53 11139.16 185.39 -38387.09 23076.68 -22704.48 0 -20088.22c-6887.79,-1330.37 -12090.18,-7391.57 -12090.18,-14669.05 0,-8251.89 6688.41,-14941.47 14938.97,-14941.47 8250.56,0 14938.97,6689.58 14938.97,14941.47 0,6484.53 -4130.61,12003.39 -9903.4,14070.41l0 23990.21 -23092.59 22720.31 -206.13 42669.78 190.64 184.64 -192.47 198.63 -122.43 25342.4 -18180.61 17279.48 281.75 57312.92 10321.57 -10081.54 0 -12963.9c-3520.64,-400.26 -6255.92,-3388.97 -6255.92,-7017.3 0,-3900.91 3161.86,-7063.35 7062.19,-7063.35 3900.33,0 7062.19,3162.44 7062.19,7063.35 0,2848.38 -1685.74,5302.49 -4113.79,6419.74l0 15142.6 -14050.58 13723.78 16.82 3428.2 19972.04 -19125.71 0 -24716.36c-2988.96,-822.34 -5184.81,-3559.7 -5184.81,-6810.59 0,-3900.91 3161.86,-7063.35 7062.19,-7063.35 3900.33,0 7062.19,3162.44 7062.19,7063.35 0,3250.89 -2195.93,5988.25 -5184.89,6810.59l0 26319.4 -23701.3 22697.07 151.16 30740.59 0 0.08 114.93 23386.66 13836.38 -13836.38 0 -18268.39c-5191.14,-1338.53 -9026.34,-6052.71 -9026.34,-11662.85 0,-6651.52 5391.19,-12043.62 12041.54,-12043.62 2874.94,0 5514.36,1008.15 7584.54,2689.72l31503.55 -31503.55 0 -3927.31c-4794.54,-1587.8 -8253.89,-6107.01 -8253.89,-11434.98 0,-5327.98 3459.34,-9847.19 8253.89,-11434.98l0 -20324.24 -20948.87 -21133.76 0 -29331.52c-3114.63,-735.81 -5432.66,-3533.97 -5432.66,-6874.05 0,-3901 3161.86,-7063.35 7062.19,-7063.35 3900.33,0 7062.19,3162.36 7062.19,7063.35 0,3296.36 -2257.65,6065.03 -5310.82,6844.23l0 7295.38 20591.08 -20591.08 0 -15781.21 -5670.85 -5670.85c-1239.01,1074.52 -2855.79,1724.8 -4624.48,1724.8 -3900.33,0 -7062.19,-3162.36 -7062.19,-7063.35 0,-3901 3161.86,-7063.35 7062.19,-7063.35 3900.33,0 7062.27,3162.36 7062.27,7063.35 0,910.62 -172.48,1780.93 -486.29,2580.29l71.62 0 7028.62 7028.62 0 18582.2 -23971.98 23971.89 0 4154.93 26337.97 -26337.89 0 -33457.79c-3094.9,-749.97 -5393.52,-3538.38 -5393.52,-6864.39 0,-3901 3161.86,-7063.35 7062.19,-7063.35 3900.33,0 7062.19,3162.36 7062.19,7063.35 0,3310.35 -2277.05,6088.35 -5349.96,6853.81l0 34868.78 -29718.87 29718.87 0 6947.84 17567.98 17568.06 0 -6844.73 -9117.12 -9117.12 0 -12203.36 23354.6 -23354.6 0 -28357.43c0,-3900.91 3161.94,-7063.35 7062.27,-7063.35 3900.33,0 7062.19,3162.44 7062.19,7063.35 0,3901.08 -3161.86,7063.35 -7062.19,7063.35 -1348.94,0 -2609.35,-378.36 -3681.38,-1034.63l0 23729.12 -23354.6 23354.68 0 9402.45 5736.23 5736.23 0 -5841.92 30534.88 -30534.88 0 -24805.06 11370.94 -11370.86c-223.62,-917.45 -342.96,-1875.71 -342.96,-2861.95 0,-6651.52 5391.19,-12043.62 12041.54,-12043.62 6650.35,0 12041.62,5392.1 12041.62,12043.62 0,6651.52 -5391.27,12043.7 -12041.62,12043.7 -3616.17,0 -6859.89,-1594.63 -9066.99,-4118.95l-8561.71 8561.79 0 24804.98 -30534.88 30534.88 0 40009.54c5868.07,806.02 10388.44,5839.75 10388.44,11930.19 0,6090.52 -4520.38,11124.25 -10388.44,11930.19l0 5685.84 -33581.72 33581.72c702.25,1528.67 1094.43,3229.48 1094.43,5021.99 0,5820.51 -4128.28,10676.69 -9616.07,11799.27l0 20385.62 -19239.56 19239.56 378.94 77093.41 -7884.19 38.73 -515.86 -104944.73 -19172.68 -19173.35 0 -9288.85 -31925.88 -31983.93 0 -32013.24c-4873.58,-1363.68 -8498.49,-5717.08 -8773.16,-10958.44l-13451.11 -14187.84 -14627.07 -114.35 -17532.17 -16958.59 80.29 -23959.4 -12241.17 -12438.05c-1740.21,977 -3747.17,1534.83 -5884.81,1534.83 -6650.35,0 -12041.54,-5392.1 -12041.54,-12043.62 0,-6651.52 5391.19,-12043.62 12041.54,-12043.62zm237441.28 70964.83l0 -15108.2c3201.75,-671.18 5606.14,-3510.98 5606.14,-6912.69 0,-3901 -3161.86,-7063.35 -7062.19,-7063.35 -3900.33,0 -7062.27,3162.36 -7062.27,7063.35 0,624.96 81.62,1230.68 234.03,1807.83l-5652.53 5652.53 0 6605.63 9604.16 9604.16 0 16193.88 -6424.24 6424.24 0 28830.82 -2468.77 2449.03 0 -35582.27c4226.72,-1869.63 7176.29,-6099.51 7176.29,-11019.15 0,-5606.64 -3830.54,-10318.24 -9016.68,-11660.27l22.49 -299.65 0 -21420.75 20721.01 -20160.92c1287.23,1360.6 3109.55,2209.59 5130.26,2209.59 3900.33,0 7062.19,-3162.36 7062.19,-7063.35 0,-3901 -3161.86,-7063.35 -7062.19,-7063.35 -3900.33,0 -7062.19,3162.36 -7062.19,7063.35 0,263.51 14.91,523.35 42.97,779.37l-23069.6 22446.06 0 23051.44 -10.08 134.34c-6086.85,602.47 -10841.34,5737.73 -10841.34,11984.16 0,6500.52 5149.5,11797.35 11591.06,12034.46l0 53121.93 -41488.48 41488.48 0 13507.91 -32804.85 32804.85 0 65685.49 5315.82 0 0 -63483.64 11116.59 -11116.67 29612.93 0 23581.96 -23581.96c1056.53,629.96 2291.29,992.24 3610.67,992.24 3900.33,0 7062.19,-3162.27 7062.19,-7063.35 0,-3900.91 -3161.86,-7063.35 -7062.19,-7063.35 -3900.33,0 -7062.19,3162.44 -7062.19,7063.35 0,1038.88 224.37,2025.2 627.04,2913.59l-720.4 720.4 -21789.2 21789.2 -23630.93 0 1786.51 -1786.51 696.42 -696.42 21181.56 0 13452.94 -13452.94 0 -9451.34c1306.38,-1281.82 2117.15,-3067.16 2117.15,-5042.15 0,-3900.91 -3161.86,-7063.35 -7062.19,-7063.35 -3900.33,0 -7062.19,3162.44 -7062.19,7063.35 0,3901.08 3161.86,7063.35 7062.19,7063.35 241.44,0 479.96,-12.24 715.24,-35.81l0 5713.83 -10975.26 10975.18 -15199.56 0 10745.56 -10745.56 0 -13507.83 22676.42 -22676.5 9273.36 0 12668.91 -12668.83 11628.45 0c798.19,3025.52 3552.71,5256.43 6828.58,5256.43 3900.33,0 7062.19,-3162.36 7062.19,-7063.35 0,-3901 -3161.86,-7063.35 -7062.19,-7063.35 -3049.26,0 -5647.03,1932.76 -6635.69,4640.39l-13573.45 0 -12668.91 12668.91 -3291.36 0 14441.85 -14441.85 10885.73 0 8851.03 -8851.03 5111.19 0c684.59,3184.43 3515.31,5571.33 6903.78,5571.33 3900.33,0 7062.19,-3162.27 7062.19,-7063.35 0,-3900.91 -3161.86,-7063.35 -7062.19,-7063.35 -2929.58,0 -5442.57,1784.26 -6511.85,4325.49l-7255.24 0 -8851.03 8851.03 -8993.28 0 0 -1967.82 0 -1570.64 8967.88 0 7403.07 -7184.11 0.17 -0.17 5326.98 -5169.4 14326.34 0c1179.54,2254.73 3540.46,3793.56 6261,3793.56 3900.33,0 7062.19,-3162.36 7062.19,-7063.35 0,-3900.91 -3161.86,-7063.35 -7062.19,-7063.35 -3574.69,0 -6528.59,2656.58 -6996.98,6103.34l-15305.33 0 -12730.21 12353.6 -7252.91 0 0 -2940.91 6685.58 -6632.03 12.99 0 0 -12.99 13484.01 -13375.99 10381.37 0 13910.92 -13910.92c1615.28,1523.5 3792.23,2457.53 6187.71,2457.53 4982.27,0 9021.26,-4039.58 9021.26,-9022.85 0,-4983.1 -4039,-9022.76 -9021.26,-9022.76 -4982.43,0 -9021.43,4039.66 -9021.43,9022.76 0,1025.8 171.48,2011.55 486.79,2930.33l-13316.11 13316.02 -7385.41 0 0 -43368.19 15206.06 -15206.06c2174.2,2146.38 5160.91,3471.42 8457.18,3471.42 6650.35,0 12041.54,-5392.1 12041.54,-12043.62 0,-6651.52 -5391.19,-12043.62 -12041.54,-12043.62 -6650.35,0 -12041.62,5392.1 -12041.62,12043.62 0,1808.17 399.18,3522.72 1112.92,5061.72l-16964.42 16964.42 0 46354.24 -10497.96 10413.85 0 -22882.63 6527.09 -6527.09 0 -36.89 0 -19455.51zm-4332.65 -15568.18l0 11235.52 -5374.36 -5374.36 0 -3101.39 3760.66 -3760.58c487.37,402.09 1029.55,739.89 1613.7,1000.82zm33392.42 65671.08c1628.44,0 2948.57,1320.63 2948.57,2949.65 0,1629.02 -1320.13,2949.65 -2948.57,2949.65 -1628.36,0 -2948.48,-1320.63 -2948.48,-2949.65 0,-1629.02 1320.13,-2949.65 2948.48,-2949.65zm-48656.61 70282.99c1628.44,0 2948.57,1320.63 2948.57,2949.65 0,1629.02 -1320.13,2949.65 -2948.57,2949.65 -1628.36,0 -2948.48,-1320.63 -2948.48,-2949.65 0,-1629.02 1320.13,-2949.65 2948.48,-2949.65zm-166900.45 -40562.37l0 -40118.3 -25147.94 -25148.02c973.83,-1246.17 1554.24,-2814.98 1554.24,-4519.38 0,-4057.24 -3288.45,-7346.1 -7344.85,-7346.1 -4056.4,0 -7344.85,3288.86 -7344.85,7346.1 0,4057.24 3288.45,7346.02 7344.85,7346.02 1169.3,0 2274.47,-273.75 3255.8,-759.96l24428.95 24429.03 0 35516.73 -1851.47 -1851.56 0 -30635.23 -22244.01 -22244.01 -12995.72 0 -4841.77 -4841.68c2766.84,-1053.2 4733.17,-3730.43 4733.17,-6867.47 0,-4057.24 -3288.45,-7346.1 -7344.85,-7346.1 -4056.4,0 -7344.85,3288.86 -7344.85,7346.1 0,3467.42 2401.98,6373.18 5632.38,7144.8l7818.23 7818.23 12995.72 0 20337.9 20337.82 0 26033.74 -1036.88 -1036.88 -814.6 -814.6 0 -21683.93 -18856.46 -18856.46 -16426.16 0 -18900.18 -18900.1 0 -2388.65c6034.39,-652.69 10732.32,-5763.55 10732.32,-11972.5 0,-6651.52 -5391.19,-12043.62 -12041.54,-12043.62 -6650.43,0 -12041.62,5392.1 -12041.62,12043.62 0,5989.25 4371.38,10956.52 10097.04,11886.46l0 3822.38 20806.2 20806.2 16426.16 0 16950.35 16950.35 0 17082.35 -1436.56 -1436.56 -24666.39 0 -14581.85 -14581.77c1348.61,-1945.42 2139.47,-4306.75 2139.47,-6853.31 0,-6651.52 -5391.19,-12043.62 -12041.62,-12043.62 -6650.35,0 -12041.54,5392.1 -12041.54,12043.62 0,6651.52 5391.19,12043.62 12041.54,12043.62 2173.86,0 4213.06,-576.4 5973.59,-1584.38l16303.65 16303.57 24666.39 0 19227.4 19227.32 0 21659.44 15427.51 15427.51 -14642.48 0 -21006.17 -21006.17c1578.05,-2036.86 2517.83,-4593.42 2517.83,-7369.75 0,-6651.52 -5391.27,-12043.62 -12041.62,-12043.62 -6650.35,0 -12041.54,5392.1 -12041.54,12043.62 0,6651.52 5391.19,12043.62 12041.54,12043.62 2069.84,0 4017.43,-522.52 5718.66,-1442.55l22750.37 22750.37 21678.93 0 32045.81 32045.64 0 64003.42 5327.64 0 0 -66210.18 -6646.69 -6646.77 0 -30576.19 -12739.87 -12739.79c938.19,-1233.68 1495.35,-2772.92 1495.35,-4442.59 0,-4057.24 -3288.36,-7346.1 -7344.85,-7346.1 -4056.4,0 -7344.77,3288.86 -7344.77,7346.1 0,4057.24 3288.36,7346.1 7344.77,7346.1 1097.34,0 2138.22,-241.02 3073.16,-672.43l11975.49 11975.33 0 25568.85 -24127.8 -24127.63 0 -499.28 -499.28 0 -17634.27 -17634.35 0 -21659.36 -6931.18 -6931.18 0 0.17 -516.19 -516.11zm147182.1 41375.3c-219.87,52.39 -449.15,80.2 -684.92,80.2 -1628.36,0 -2948.48,-1320.63 -2948.48,-2949.65 0,-1586.72 1252.5,-2880.61 2822.31,-2946.74 52.72,-2.83 105.6,-4.33 158.99,-4.33 1628.69,0 2949.15,1319.13 2949.15,2946.49 0,1403.41 -982.16,2577.46 -2297.04,2874.03zm47676.78 -43508.27c1628.36,0 2948.48,1320.71 2948.48,2949.73 0,1629.02 -1320.13,2949.65 -2948.48,2949.65 -1628.44,0 -2948.57,-1320.63 -2948.57,-2949.65 0,-1629.02 1320.13,-2949.73 2948.57,-2949.73zm10024.16 -14538.88c1628.44,0 2948.48,1320.63 2948.48,2949.65 0,1629.11 -1320.04,2949.73 -2948.48,2949.73 -1256.41,0 -2329.19,-786.45 -2753.77,-1893.78l0 -2111.82c424.58,-1107.34 1497.35,-1893.78 2753.77,-1893.78zm13478.26 -99315.68c3462.76,0 6269.83,2807.98 6269.83,6271.91 0,3463.93 -2807.07,6271.91 -6269.83,6271.91 -3462.76,0 -6269.91,-2807.98 -6269.91,-6271.91 0,-3463.93 2807.15,-6271.91 6269.91,-6271.91zm-33320.04 11193.46c1628.36,0 2948.48,1320.63 2948.48,2949.65 0,1629.02 -1320.13,2949.65 -2948.48,2949.65 -1628.44,0 -2948.57,-1320.63 -2948.57,-2949.65 0,-1629.02 1320.13,-2949.65 2948.57,-2949.65zm12263.74 -27428.74c1628.44,0 2948.57,1320.63 2948.57,2949.73 0,1629.02 -1320.13,2949.65 -2948.57,2949.65 -1628.36,0 -2948.48,-1320.63 -2948.48,-2949.65 0,-1629.11 1320.13,-2949.73 2948.48,-2949.73zm26629.22 69639.37c2080,0 3766.41,1686.99 3766.41,3767.91 0,2081 -1686.41,3767.99 -3766.41,3767.99 -2080.17,0 -3766.58,-1686.99 -3766.58,-3767.99 0,-2080.92 1686.41,-3767.91 3766.58,-3767.91zm-55527.91 -14566.19c3462.76,0 6269.91,2807.98 6269.91,6271.91 0,3463.93 -2807.15,6271.91 -6269.91,6271.91 -3462.76,0 -6269.83,-2807.98 -6269.83,-6271.91 0,-3463.93 2807.07,-6271.91 6269.83,-6271.91zm-133746.23 100473.99c2112.23,0 3824.46,1712.72 3824.46,3825.54 0,2112.82 -1712.22,3825.54 -3824.46,3825.54 -2112.15,0 -3824.38,-1712.72 -3824.38,-3825.54 0,-2112.82 1712.22,-3825.54 3824.38,-3825.54zm-62285.36 -11231.27c3462.76,0 6269.91,2807.98 6269.91,6271.83 0,3463.93 -2807.15,6271.91 -6269.91,6271.91 -3462.68,0 -6269.83,-2807.98 -6269.83,-6271.91 0,-3463.84 2807.15,-6271.83 6269.83,-6271.83zm-36426.1 -54701.15c3462.76,0 6269.91,2807.98 6269.91,6271.83 0,3463.93 -2807.15,6271.91 -6269.91,6271.91 -3462.68,0 -6269.83,-2807.98 -6269.83,-6271.91 0,-3463.84 2807.15,-6271.83 6269.83,-6271.83zm56043.77 -87322.45c1628.44,0 2948.57,1320.63 2948.57,2949.65 0,1629.02 -1320.13,2949.73 -2948.57,2949.73 -1628.36,0 -2948.48,-1320.71 -2948.48,-2949.73 0,-1629.02 1320.13,-2949.65 2948.48,-2949.65zm43568.15 -40460.1c1628.36,0 2948.48,1320.63 2948.48,2949.65 0,1629.02 -1320.13,2949.65 -2948.48,2949.65 -1628.44,0 -2948.57,-1320.63 -2948.57,-2949.65 0,-1629.02 1320.13,-2949.65 2948.57,-2949.65zm-18758.18 -33309.8c1628.44,0 2948.57,1320.63 2948.57,2949.65 0,1629.02 -1320.13,2949.65 -2948.57,2949.65 -1628.44,0 -2948.48,-1320.63 -2948.48,-2949.65 0,-1629.02 1320.04,-2949.65 2948.48,-2949.65zm141004.38 47156.59c1628.36,0 2948.48,1320.63 2948.48,2949.65 0,1629.02 -1320.13,2949.65 -2948.48,2949.65 -1628.44,0 -2948.57,-1320.63 -2948.57,-2949.65 0,-1629.02 1320.13,-2949.65 2948.57,-2949.65zm-10861.08 -16080.12c1628.44,0 2948.57,1320.63 2948.57,2949.65 0,1629.02 -1320.13,2949.65 -2948.57,2949.65 -1628.44,0 -2948.48,-1320.63 -2948.48,-2949.65 0,-1629.02 1320.04,-2949.65 2948.48,-2949.65zm-17710.89 10342.06c1628.44,0 2948.57,1320.71 2948.57,2949.73 0,1629.02 -1320.13,2949.65 -2948.57,2949.65 -1628.36,0 -2948.48,-1320.63 -2948.48,-2949.65 0,-1629.02 1320.13,-2949.73 2948.48,-2949.73zm-12047.12 33242.09c1628.44,0 2948.48,1320.71 2948.48,2949.73 0,1629.02 -1320.04,2949.65 -2948.48,2949.65 -1628.44,0 -2948.57,-1320.63 -2948.57,-2949.65 0,-1629.02 1320.13,-2949.73 2948.57,-2949.73zm-19768.74 141996.2c3462.76,0 6269.91,2807.98 6269.91,6271.83 0,3463.93 -2807.15,6271.91 -6269.91,6271.91 -3462.76,0 -6269.83,-2807.98 -6269.83,-6271.91 0,-3463.84 2807.07,-6271.83 6269.83,-6271.83zm42875.74 -56219.83c3462.76,0 6269.91,2808.07 6269.91,6271.91 0,3463.93 -2807.15,6271.91 -6269.91,6271.91 -3462.68,0 -6269.83,-2807.98 -6269.83,-6271.91 0,-3463.84 2807.15,-6271.91 6269.83,-6271.91zm49816.75 -123766.04c3462.76,0 6269.91,2807.98 6269.91,6271.83 0,3463.93 -2807.15,6271.91 -6269.91,6271.91 -3462.76,0 -6269.83,-2807.98 -6269.83,-6271.91 0,-3463.84 2807.07,-6271.83 6269.83,-6271.83zm-87986.13 117121.27c1628.36,0 2948.48,1320.63 2948.48,2949.65 0,1629.11 -1320.13,2949.73 -2948.48,2949.73 -1628.44,0 -2948.57,-1320.63 -2948.57,-2949.73 0,-1629.02 1320.13,-2949.65 2948.57,-2949.65zm-10764.05 11938.35c1628.36,0 2948.48,1320.63 2948.48,2949.65 0,1629.02 -1320.13,2949.65 -2948.48,2949.65 -1628.44,0 -2948.57,-1320.63 -2948.57,-2949.65 0,-1629.02 1320.13,-2949.65 2948.57,-2949.65zm-41283.61 -3705.45c4357.06,0 7889.27,3533.3 7889.27,7891.86 0,4358.56 -3532.22,7891.94 -7889.27,7891.94 -4357.14,0 -7889.36,-3533.38 -7889.36,-7891.94 0,-4358.56 3532.22,-7891.86 7889.36,-7891.86zm-67554.62 -140274.9c1628.44,0 2948.57,1320.63 2948.57,2949.65 0,1629.02 -1320.13,2949.65 -2948.57,2949.65 -1628.44,0 -2948.48,-1320.63 -2948.48,-2949.65 0,-1629.02 1320.04,-2949.65 2948.48,-2949.65zm81970.15 78122.79c1628.36,0 2948.48,1320.63 2948.48,2949.65 0,1629.02 -1320.13,2949.65 -2948.48,2949.65 -1628.44,0 -2948.57,-1320.63 -2948.57,-2949.65 0,-1629.02 1320.13,-2949.65 2948.57,-2949.65zm-18972.55 -39561.55c2644.58,0 4788.55,2144.72 4788.55,4790.3 0,2645.58 -2143.97,4790.3 -4788.55,4790.3 -2644.67,0 -4788.63,-2144.72 -4788.63,-4790.3 0,-2645.58 2143.97,-4790.3 4788.63,-4790.3zm3180.84 -72569.03c2611.85,0 4729.17,2117.98 4729.17,4730.67 0,2612.69 -2117.32,4730.75 -4729.17,4730.75 -2611.77,0 -4729.08,-2118.06 -4729.08,-4730.75 0,-2612.69 2117.32,-4730.67 4729.08,-4730.67zm27072.29 16292.24c3651.4,0 6611.37,2960.89 6611.37,6613.46 0,3652.56 -2959.98,6613.46 -6611.37,6613.46 -3651.48,0 -6611.46,-2960.89 -6611.46,-6613.46 0,-3652.56 2959.98,-6613.46 6611.46,-6613.46zm40745.93 -17797.26c4823.78,0 8734.35,3911.57 8734.35,8736.85 0,4825.19 -3910.57,8736.77 -8734.35,8736.77 -4823.86,0 -8734.35,-3911.57 -8734.35,-8736.77 0,-4825.28 3910.49,-8736.85 8734.35,-8736.85zm-91782.94 150068.87c3409.71,0 6173.89,2765.01 6173.89,6175.97 0,3410.87 -2764.18,6175.88 -6173.89,6175.88 -3409.79,0 -6173.97,-2765.01 -6173.97,-6175.88 0,-3410.96 2764.18,-6175.97 6173.97,-6175.97zm-75680.67 -77622.51c3462.76,0 6269.83,2807.98 6269.83,6271.91 0,3463.84 -2807.07,6271.91 -6269.83,6271.91 -3462.76,0 -6269.83,-2808.07 -6269.83,-6271.91 0,-3463.93 2807.07,-6271.91 6269.83,-6271.91zm-14758.58 54732.38c3462.68,0 6269.83,2807.98 6269.83,6271.91 0,3463.93 -2807.15,6271.91 -6269.83,6271.91 -3462.76,0 -6269.91,-2807.98 -6269.91,-6271.91 0,-3463.93 2807.15,-6271.91 6269.91,-6271.91zm17904.11 16764.79c2112.15,0 3824.38,1712.81 3824.38,3825.63 0,2112.73 -1712.22,3825.54 -3824.38,3825.54 -2112.23,0 -3824.46,-1712.81 -3824.46,-3825.54 0,-2112.82 1712.22,-3825.63 3824.46,-3825.63zm16859.9 -91.86c2112.23,0 3824.38,1712.81 3824.38,3825.63 0,2112.82 -1712.14,3825.54 -3824.38,3825.54 -2112.15,0 -3824.38,-1712.72 -3824.38,-3825.54 0,-2112.82 1712.22,-3825.63 3824.38,-3825.63z"/>
 </g>
</svg>
